<svg xmlns="http://www.w3.org/2000/svg" shape-rendering="geometricPrecision" text-rendering="geometricPrecision" image-rendering="optimizeQuality" fill-rule="evenodd" clip-rule="evenodd" viewBox="0 0 512 512"><path fill="#FE0002" fill-rule="nonzero" d="M256 0c70.69 0 134.691 28.654 181.018 74.982C483.345 121.309 512 185.309 512 256s-28.655 134.691-74.982 181.018C390.691 483.346 326.69 512 256 512c-70.691 0-134.691-28.654-181.018-74.982C28.654 390.691 0 326.691 0 256S28.654 121.309 74.982 74.982C121.309 28.654 185.309 0 256 0z"/><path fill="#fff" fill-rule="nonzero" d="M409.655 102.344C370.333 63.022 316.007 38.7 256 38.7c-60.007 0-114.333 24.322-153.655 63.645C63.022 141.667 38.7 195.993 38.7 256c0 60.007 24.322 114.333 63.645 153.655C141.667 448.978 195.993 473.3 256 473.3c60.007 0 114.333-24.322 153.655-63.644C448.978 370.333 473.3 316.007 473.3 256c0-60.007-24.322-114.333-63.645-153.656z"/><path d="M181.918 220.827c-3.408-3.292-6.257-7.531-8.639-12.56-5.071-10.703-7.776-22.388-7.792-33.821-.094-64.494 78.475-75.178 126.205-58.698 12.579 4.341 23.374 10.934 30.447 19.995 16.886 21.631 20.553 63.458-1.716 83.06a53.437 53.437 0 01-.941-4.399 48.32 48.32 0 01-.638-5.812l-.001-.05c-.321-6.797.86-10.061 2.409-14.363.748-2.069 1.578-4.361 2.391-7.326 1.226-4.462 1.884-8.811 1.696-12.977-.198-4.356-1.306-8.494-3.607-12.344a3.443 3.443 0 00-4.719-1.188 3.445 3.445 0 00-1.186 4.721c1.678 2.81 2.489 5.867 2.635 9.106.156 3.424-.407 7.076-1.451 10.877-.74 2.699-1.519 4.852-2.227 6.799-1.817 5.031-3.201 8.858-2.817 17.018l.004.052c.105 2.242.351 4.452.719 6.62.374 2.21.875 4.393 1.485 6.544.065.228.15.443.254.646 2.019 4.821 2.876 12.008 2.009 18.773-.713 5.552-2.591 10.696-5.944 13.678-2.109 1.878-5.086 2.641-8.346 3.476-5.133 1.316-10.853 2.784-16.593 8.265-1.892 1.805-4.041 3.938-5.825 6.368-1.952 2.662-3.451 5.666-3.756 8.991-.042.461.011.91.139 1.327-.876.174-1.749.337-2.622.492l-.04.005-.033.007h-.005l-.038.007-.039.009a128.989 128.989 0 01-22.621 1.988 125.46 125.46 0 01-14.227-.835 1.486 1.486 0 00-.293-.035 127.429 127.429 0 01-7.38-1.094 1.555 1.555 0 00-.336-.059c-.8-.144-1.598-.297-2.396-.457.014-.115.021-.231.021-.35.026-2.886-.92-5.74-2.358-8.357-1.688-3.074-4.09-5.884-6.314-8.007-5.738-5.484-11.457-6.95-16.592-8.267-3.26-.834-6.238-1.599-8.345-3.474-3.353-2.982-5.231-8.127-5.945-13.678-.868-6.762-.012-13.952 2.008-18.773.104-.201.188-.418.252-.646a61.516 61.516 0 001.485-6.544c.373-2.19.619-4.42.726-6.672.382-8.164-.999-11.989-2.819-17.021-.712-1.969-1.499-4.146-2.228-6.796-1.043-3.801-1.605-7.453-1.448-10.877.146-3.239.955-6.297 2.634-9.106a3.444 3.444 0 00-1.186-4.721 3.443 3.443 0 00-4.719 1.188c-2.302 3.851-3.408 7.988-3.605 12.344-.189 4.166.466 8.515 1.692 12.977.828 3.014 1.651 5.283 2.391 7.335 1.551 4.291 2.73 7.555 2.412 14.354a48.23 48.23 0 01-.642 5.862 54.967 54.967 0 01-1.281 5.665l-.304.758zm-2.916 34.72c-17.01-6.066-36.233-13.549-40.746-18.959-4.1-4.918-6.715-11.178-10.782-16.853-4.523-6.314-10.07-7.891-13.678-7.402-6.284.85-9.66 10.511-10.023 28.089-32.72 25.704-8.812 34.776 5.582 31.079 19.331-4.961 19.922-5.379 45.468 5.967l41.371 18.403.007-.344c.158-8.916.319-18.067-5.828-29.474-5.223-2.786-8.911-6.34-11.371-10.506zm17.16 42.303l-41.339 18.385c-25.546 11.348-26.137 10.93-45.468 5.968-14.394-3.697-38.302 5.374-5.582 31.078.363 17.578 3.739 27.239 10.023 28.09 3.608.488 9.155-1.089 13.678-7.403 4.067-5.675 5.594-13.097 10.782-16.851 4.741-3.431 34.729-14.052 67.369-25.342a41.138 41.138 0 01-5.872-10.238c-3.485-8.773-3.691-16.229-3.591-23.687zm102.047 31.103c35.657 12.301 70.4 24.45 75.535 28.164 5.188 3.754 6.717 11.176 10.782 16.851 4.521 6.314 10.07 7.891 13.676 7.403 6.286-.851 9.663-10.512 10.025-28.09 32.72-25.704 8.812-34.775-5.58-31.078-19.333 4.962-19.922 5.38-45.47-5.968l-43.579-19.383 43.579-19.384c25.548-11.346 26.137-10.928 45.47-5.967 14.392 3.697 38.3-5.375 5.58-31.079-.362-17.578-3.739-27.239-10.025-28.089-3.606-.489-9.155 1.088-13.676 7.402-4.065 5.675-6.679 11.935-10.782 16.853-5.786 6.938-35.649 17.286-54.079 23.675-1.93 2.084-4.264 3.988-7.055 5.687-8.525 14.33-8.061 23.518-7.625 32.148.461 9.114.894 17.723-6.211 29.921-.182.315-.372.626-.565.934zm-68.887-95.25c-3.968 4.916-8.918 9.331-13.617 9.202-8.816-.241-15.7-8.929-18.266-16.615-1.484-4.444-3.276-11.012-.56-15.134 3.895-5.913 10.887-6.333 18.369-7.658 11.517-2.042 21.825-4.981 23.525 7.953.351 2.671.266 4.617-.202 6.43-1.18 4.577-6.308 12.176-9.249 15.822zm44.098 0c3.968 4.916 8.918 9.331 13.617 9.202 8.816-.241 15.7-8.929 18.267-16.615 1.483-4.444 3.274-11.012.56-15.134-3.896-5.913-10.887-6.333-18.37-7.658-11.516-2.042-21.824-4.981-23.525 7.953-.351 2.671-.269 4.617.2 6.43 1.183 4.577 6.309 12.176 9.251 15.822zm-20.599 31.122l.298-30.151c9.532 5.414 17.023 20.596 12.019 35.589-1.916 5.736-10.519-1.442-12.317-5.438zm-3.25 0l-.295-30.151c-9.531 5.414-17.022 20.596-12.019 35.589 1.914 5.736 10.518-1.442 12.314-5.438zm54.98.308c-14.252 26.431.841 35.767-11.779 57.433-14.972 25.707-73.284 27.95-86.597-5.582-7.22-18.185 1.789-31.327-8.046-51.933l1.014.261c1.617.414 3.303.847 5.018 1.454 2.087 4.835 3.636 9.171 4.853 13.469 1.447 5.112 2.43 10.202 3.288 16.041l.288 2.165c.497 4.052.658 5.347 4.947 9.037 7.631 6.566 20.242 9.718 32.734 9.852 13.138.141 26.268-3.072 33.434-9.167 4.241-3.608 4.542-5.504 5.208-9.743l.278-1.695c.995-5.815 1.997-10.852 3.379-15.906 1.158-4.241 2.599-8.544 4.544-13.386 2.298-.984 4.576-1.566 6.731-2.119l.706-.181zm-12.045 4.918a22.27 22.27 0 00-2.207 1.855c-1.662 1.586-3.544 3.448-5.015 5.453-1.248 1.703-2.212 3.511-2.438 5.31.096.199.153.42.157.652l.012.614.002.04.001.04V284.132l.416 19.619c1.516-1.787 1.755-3.279 2.158-5.846l.278-1.745c1.002-5.855 2.022-10.973 3.459-16.224.875-3.2 1.904-6.432 3.177-9.885zm-73.353 13.968v-.018l.002-.022v-.018l.002-.022.002-.016.002-.024.001-.016.004-.024.001-.014.004-.026.002-.014.003-.024.004-.016.005-.023.003-.015.004-.023.005-.017.005-.021.005-.019.004-.019.007-.019.005-.018.007-.021.005-.015.005-.018-.012-.309c.014-1.576-.596-3.304-1.519-4.987-1.315-2.393-3.231-4.628-5.02-6.335a22.227 22.227 0 00-4.023-3.062 104.994 104.994 0 013.589 10.483c1.497 5.29 2.506 10.507 3.383 16.462l.297 2.247c.332 2.707.468 3.792 2.746 5.948l.21-8.883v-.038l.002-.037.002-.038.258-10.908v-.061zm61.203 22.515l-.184-8.724a40.117 40.117 0 01-4.617 2.081l.2 9.333c1.701-.8 3.248-1.697 4.601-2.69zm-7.712 3.983l-.203-9.56a60.59 60.59 0 01-4.666 1.224l.195 9.781c1.629-.419 3.193-.9 4.674-1.445zm-7.798 2.153l-.197-9.872a75.208 75.208 0 01-3.971.585l.199 9.946a64.896 64.896 0 003.969-.659zm-7.1 1.01l-.2-9.981c-1.577.129-3.17.213-4.767.251l.051 10.005a74.453 74.453 0 004.916-.275zm-8.053.28l-.05-9.991a83.547 83.547 0 01-5.137-.226l-.198 9.922c1.782.165 3.584.262 5.385.295zm-8.517-.659l.198-9.859a72.315 72.315 0 01-3.969-.571l-.197 9.752c1.301.266 2.626.492 3.968.678zm-7.091-1.406l.193-9.641c-1.6-.356-3.159-.77-4.664-1.243l-.201 9.404a48.374 48.374 0 004.672 1.48zm-7.783-2.793l.197-9.181a39.58 39.58 0 01-4.534-2.096l-.207 8.669a31.748 31.748 0 004.544 2.608zm-4.072-22.436l-.181 7.576a32.782 32.782 0 004.522 2.321l.206-9.598c-.918-.174-1.835-.359-2.751-.553a3.424 3.424 0 01-1.796.254zm7.672.853l-.218 10.218c1.494.499 3.05.935 4.659 1.313l.218-10.847c-1.556-.2-3.11-.428-4.659-.684zm7.79 1.047l-.223 11.125c1.301.237 2.628.432 3.97.591l.228-11.367a125.291 125.291 0 01-3.975-.349zm7.108.537l-.23 11.486c1.673.13 3.363.205 5.057.227l-.059-11.574c-1.593-.017-3.18-.062-4.768-.139zm7.905.132l.059 11.564a81.847 81.847 0 004.721-.254l-.231-11.45a133.56 133.56 0 01-4.549.14zm7.684-.332l.228 11.322a71.34 71.34 0 003.968-.603l-.223-11.07c-1.325.137-2.652.254-3.973.351zm7.105-.713l.217 10.79a54.99 54.99 0 004.66-1.288l-.217-10.178c-1.556.254-3.111.478-4.66.676zm7.785-1.224l.205 9.581a31.889 31.889 0 004.611-2.314l-.174-8.216c-1.549.342-3.097.661-4.642.949z"/></svg>